<svg {{ $attributes }} viewBox="0 0 365 61" fill="none" xmlns="http://www.w3.org/2000/svg">
    <path d="M13.0638 0C3.93489 0 0 3.7732 0 12.5773V20.9098C0 29.8711 3.93489 33.6443 13.0638 33.6443H32.2661C41.395 33.6443 45.3299 29.8711 45.3299 21.067V15.7217H17.3135V21.5387C17.3135 21.5387 37.3027 21.5387 38.4045 21.5387V22.6392C38.4045 26.4124 36.5157 27.8273 31.7939 27.8273H13.536C8.81414 27.8273 6.9254 26.4124 6.9254 22.6392V11.1624C6.9254 7.38918 8.81414 5.97423 13.536 5.97423H31.7939C34.7844 5.97423 36.6731 6.60309 37.6175 8.01804V8.33248H44.8577V7.70361C43.2837 2.35825 39.5063 0 32.2661 0H13.0638Z" fill="white"/>
    <path d="M64.2174 0C59.6529 0 56.505 0.943299 54.4588 2.8299C53.1997 3.7732 52.4127 5.18815 51.9405 6.76031C51.7831 7.70361 51.6257 8.64691 51.6257 9.59021C51.6257 13.9923 53.0423 16.5077 56.505 18.0799C59.8103 19.4948 64.8469 19.8093 73.3463 19.8093H82.9474C88.7711 19.8093 89.4006 20.7526 89.7154 22.1675V23.4253C89.7154 26.0979 88.9284 27.0412 85.9379 27.5129C85.151 27.6701 84.2066 27.8273 83.1048 27.8273H65.9487C63.5878 27.8273 62.0138 27.6701 60.7547 27.1985C60.1251 26.884 59.6529 26.5696 59.3381 26.0979V25.7835V25.4691H58.8659H52.0979V26.2552C52.5701 28.7706 53.9867 30.6572 56.1902 31.7577C58.2363 33.0155 60.9121 33.6443 64.5322 33.6443H83.7344C85.6231 33.6443 87.3545 33.4871 88.9285 33.1727C94.4373 32.2294 97.113 29.2423 97.113 24.3686V22.3247C97.113 21.3814 97.113 20.4381 96.6408 19.6521C95.8539 17.2938 94.1225 15.7217 91.4468 14.7784C89.0858 13.9923 86.0953 13.5206 82.0031 13.5206H67.0505C58.7085 13.5206 58.7085 11.9485 58.7085 9.90464C58.7085 7.86083 59.0233 7.54639 59.4955 7.07474C60.7547 5.81701 64.2174 5.81701 70.3558 5.81701H76.3368C85.4658 5.81701 88.1415 6.28866 88.7711 7.86083V8.17526H96.326V7.54639L95.8539 6.13144C95.5391 5.03093 94.9095 3.93041 93.9651 3.14433C91.4468 1.10052 88.2989 0 83.4196 0H64.2174Z" fill="white"/>
    <path d="M115.528 6.60309C107.344 6.60309 103.251 10.3763 103.251 18.0799V22.3247C103.251 29.8711 107.344 33.8015 115.528 33.8015H135.045C143.23 33.8015 147.322 30.0283 147.322 22.3247V18.0799C147.322 10.5335 143.23 6.60309 135.045 6.60309H115.528ZM115.528 12.1057H135.045C140.712 12.1057 141.656 13.9923 141.656 17.9227V22.1675C141.656 26.0979 140.712 27.9845 135.045 27.9845H115.528C109.862 27.9845 108.918 26.0979 108.918 22.1675V17.9227C108.918 13.9923 109.862 12.1057 115.528 12.1057Z" fill="white"/>
    <path d="M198.318 0H152.988V6.91753H172.191V33.6443H179.116V6.91753H198.318V0Z" fill="white"/>
    <path d="M4.87926 56.9124V55.8119H9.12894V59.4278C8.49935 59.8995 7.86977 60.3711 7.08279 60.5283C6.45321 60.8428 5.66624 60.8428 5.03665 60.8428C4.40707 60.8428 3.14791 60.6856 2.36093 60.2139C1.57395 59.7423 0.944373 59.2706 0.629582 58.4845C0.157395 57.6985 0 56.7552 0 55.8119C0 54.8686 0.157395 53.9253 0.629582 53.1392C1.10177 52.3531 1.57395 51.7242 2.36093 51.2526C3.14791 50.7809 3.93489 50.6237 5.03665 50.6237C6.13842 50.6237 6.45321 50.6237 6.9254 50.9381C7.39759 51.2526 8.02717 51.567 8.34196 51.8814C8.65675 52.3531 8.97154 52.8247 9.12894 53.4536L8.02717 53.768C8.02717 53.2964 7.71238 52.8247 7.39759 52.5103C7.24019 52.1959 6.9254 52.0387 6.45321 51.8814C5.98103 51.7242 5.66624 51.567 5.03665 51.567C4.40707 51.567 3.93489 51.567 3.4627 51.8814C2.99051 52.0387 2.67572 52.3531 2.36093 52.6675C2.04614 52.982 1.88875 53.2964 1.73135 53.6108C1.41656 54.2397 1.41656 54.8686 1.41656 55.6546C1.41656 56.4407 1.41656 57.2268 1.88875 57.8557C2.20354 58.4845 2.67572 58.9562 3.14791 59.1134C3.77749 59.4278 4.40707 59.5851 5.03665 59.5851C5.66624 59.5851 6.13842 59.5851 6.768 59.2706C7.24019 59.1134 7.71238 58.799 8.02717 58.6417V56.7552H5.19405L4.87926 56.9124Z" fill="white"/>
    <path d="M11.0177 60.8428V50.9381H15.4248C16.3691 50.9381 16.9987 50.9381 17.4709 51.2526C17.9431 51.4098 18.2579 51.7242 18.5727 52.1959C18.8875 52.6675 19.0449 53.1392 19.0449 53.6108C19.0449 54.0825 18.8875 54.8686 18.4153 55.3402C17.9431 55.8119 17.3135 56.1263 16.3691 56.2835C16.6839 56.4407 16.9987 56.5979 17.1561 56.7552C17.4709 57.0696 17.9431 57.5412 18.2579 58.0129L19.9892 60.6856H18.4153L17.1561 58.6418C16.8413 58.0129 16.5265 57.5412 16.2117 57.2268C15.897 56.9124 15.7396 56.7552 15.5822 56.5979C15.4248 56.5979 15.2674 56.4407 14.9526 56.2835C14.9526 56.2835 14.6378 56.2835 14.1656 56.2835H12.5917V60.6856H11.3325L11.0177 60.8428ZM12.4343 55.3402H15.2674C15.897 55.3402 16.3691 55.3402 16.6839 55.183C16.9987 55.183 17.3135 54.8686 17.4709 54.5541C17.6283 54.2397 17.7857 53.9253 17.7857 53.6108C17.7857 53.1392 17.6283 52.8247 17.3135 52.5103C16.9987 52.1959 16.3691 52.0387 15.7396 52.0387H12.5917V55.3402H12.4343Z" fill="white"/>
    <path d="M27.3868 50.9381H28.646V56.5979C28.646 57.5412 28.646 58.3273 28.3312 58.9562C28.1738 59.5851 27.7016 60.0567 27.072 60.3711C26.4424 60.6856 25.6555 60.8428 24.7111 60.8428C23.7667 60.8428 22.9797 60.6856 22.5075 60.3711C22.0354 60.0567 21.5632 59.5851 21.2484 58.9562C20.9336 58.3273 20.9336 57.5412 20.9336 56.4407V50.7809H22.1928V56.4407C22.1928 57.2268 22.1928 57.8557 22.5075 58.3273C22.8223 58.799 22.9797 59.1134 23.2945 59.2706C23.6093 59.4278 24.0815 59.5851 24.7111 59.5851C25.6555 59.5851 26.285 59.4278 26.7572 58.9562C27.2294 58.4845 27.3868 57.6985 27.3868 56.4407V50.7809V50.9381Z" fill="white"/>
    <path d="M30.8495 60.8428V50.9381H34.627C35.2566 50.9381 35.7287 50.9381 36.2009 50.9381C36.6731 50.9381 37.1453 51.0954 37.4601 51.4098C37.7749 51.567 38.0897 51.8814 38.2471 52.3531C38.4045 52.8247 38.5619 53.1392 38.5619 53.768C38.5619 54.5541 38.2471 55.3402 37.7749 55.9691C37.3027 56.5979 36.2009 56.9124 34.9418 56.9124H32.4234V60.8428H31.1643H30.8495ZM32.266 55.6546H34.7844C35.5714 55.6546 36.2009 55.6546 36.5157 55.183C36.8305 54.8686 36.9879 54.3969 36.9879 53.9253C36.9879 53.4536 36.9879 53.1392 36.6731 52.8247C36.3583 52.5103 36.2009 52.3531 35.8861 52.1959C35.7287 52.1959 35.2566 52.1959 34.627 52.1959H32.1086V55.6546H32.266Z" fill="white"/>
    <path d="M40.1359 60.8428V50.9381H43.9134C44.5429 50.9381 45.0151 50.9381 45.4873 50.9381C45.9595 50.9381 46.4317 51.0954 46.7465 51.4098C47.0613 51.567 47.3761 51.8814 47.5335 52.3531C47.6908 52.8247 47.8482 53.1392 47.8482 53.768C47.8482 54.5541 47.5334 55.3402 47.0613 55.9691C46.5891 56.5979 45.4873 56.9124 44.2281 56.9124H41.7098V60.8428H40.4507H40.1359ZM41.395 55.6546H43.9134C44.7003 55.6546 45.3299 55.6546 45.6447 55.183C45.9595 54.8686 46.1169 54.3969 46.1169 53.9253C46.1169 53.4536 46.1169 53.1392 45.8021 52.8247C45.4873 52.5103 45.3299 52.3531 45.0151 52.1959C44.8577 52.1959 44.3855 52.1959 43.756 52.1959H41.2376V55.6546H41.395Z" fill="white"/>
    <path d="M49.2648 60.8428V50.9381H56.3475V52.0387H50.5239V55.0258H56.0328V56.1263H50.5239V59.4278H56.5049V60.5284H49.1074L49.2648 60.8428Z" fill="white"/>
    <path d="M62.3286 60.8428V50.9381H68.9392V52.0387H63.5878V55.0258H68.1522V56.1263H63.5878V60.5284H62.3286V60.8428Z" fill="white"/>
    <path d="M77.1237 50.9381H78.3829V56.5979C78.3829 57.5412 78.3829 58.3273 78.0681 58.9562C77.9107 59.5851 77.4385 60.0567 76.809 60.3711C76.1794 60.6856 75.3924 60.8428 74.448 60.8428C73.5036 60.8428 72.7167 60.6856 72.2445 60.3711C71.7723 60.0567 71.3001 59.5851 70.9853 58.9562C70.6705 58.3273 70.6705 57.5412 70.6705 56.4407V50.7809H71.9297V56.4407C71.9297 57.2268 71.9297 57.8557 72.2445 58.3273C72.5593 58.799 72.7167 59.1134 73.0315 59.2706C73.3463 59.4278 73.8184 59.5851 74.448 59.5851C75.3924 59.5851 76.022 59.4278 76.4942 58.9562C76.9663 58.4845 77.1237 57.6985 77.1237 56.4407V50.7809V50.9381ZM72.7167 50.3093V48.8943H73.9758V50.3093H72.7167ZM75.235 50.3093V48.8943H76.4942V50.3093H75.235Z" fill="white"/>
    <path d="M80.5865 60.8428V50.9381H84.9936C85.9379 50.9381 86.5675 50.9381 87.0397 51.2526C87.5119 51.4098 87.8267 51.7242 88.1415 52.1959C88.4563 52.6675 88.6137 53.1392 88.6137 53.6108C88.6137 54.0825 88.4563 54.8686 87.9841 55.3402C87.5119 55.8119 86.8823 56.1263 85.9379 56.2835C86.2527 56.4407 86.5675 56.5979 86.7249 56.7552C87.0397 57.0696 87.5119 57.5412 87.8267 58.0129L89.558 60.6856H87.9841L86.7249 58.6418C86.4101 58.0129 86.0953 57.5412 85.7805 57.2268C85.4657 56.9124 85.3083 56.7552 85.151 56.5979C84.9936 56.5979 84.8362 56.4407 84.5214 56.2835C84.5214 56.2835 84.2066 56.2835 83.7344 56.2835H82.1604V60.6856H80.9013L80.5865 60.8428ZM82.003 55.3402H84.8362C85.4657 55.3402 85.9379 55.3402 86.2527 55.183C86.5675 55.183 86.8823 54.8686 87.0397 54.5541C87.1971 54.2397 87.3545 53.9253 87.3545 53.6108C87.3545 53.1392 87.1971 52.8247 86.8823 52.5103C86.5675 52.1959 85.9379 52.0387 85.3083 52.0387H82.1604V55.3402H82.003Z" fill="white"/>
    <path d="M94.4372 60.8428V50.9381H101.52V52.0387H95.6964V55.0258H101.205V56.1263H95.6964V59.4278H101.677V60.5284H94.2798L94.4372 60.8428Z" fill="white"/>
    <path d="M103.724 60.8428V50.9381H104.983V60.8428H103.724Z" fill="white"/>
    <path d="M107.344 60.8428V50.9381H108.76L113.954 58.6418V50.9381H115.213V60.8428H113.954L108.76 53.1392V60.8428H107.501H107.344Z" fill="white"/>
    <path d="M117.417 60.8428V50.9381H124.5V52.0387H118.676V55.0258H124.185V56.1263H118.676V59.4278H124.657V60.5284H117.26L117.417 60.8428Z" fill="white"/>
    <path d="M129.851 57.6985H131.11C131.11 58.0129 131.268 58.4845 131.583 58.799C131.74 59.1134 132.055 59.4278 132.527 59.5851C132.999 59.7423 133.471 59.8995 134.101 59.8995C134.73 59.8995 135.045 59.8995 135.36 59.7423C135.675 59.7423 135.99 59.4278 136.147 59.1134C136.304 58.799 136.462 58.6418 136.462 58.3273C136.462 58.0129 136.462 57.6985 136.147 57.5412C135.832 57.384 135.675 57.0696 135.203 56.9124C134.888 56.9124 134.416 56.5979 133.471 56.4407C132.527 56.2835 131.897 55.9691 131.583 55.8119C131.11 55.4974 130.796 55.183 130.481 54.8686C130.323 54.5541 130.166 54.0825 130.166 53.6108C130.166 53.1392 130.166 52.6675 130.638 52.1959C130.953 51.7242 131.268 51.4098 131.897 51.2526C132.37 51.0954 132.999 50.9381 133.629 50.9381C134.258 50.9381 135.045 50.9381 135.517 51.2526C135.99 51.567 136.462 51.8814 136.777 52.3531C137.091 52.8247 137.249 53.2964 137.249 53.9253H135.99C135.99 53.4536 135.675 52.982 135.36 52.6675C135.045 52.3531 134.416 52.1959 133.629 52.1959C132.842 52.1959 132.212 52.1959 131.897 52.6675C131.583 52.982 131.425 53.2964 131.425 53.768C131.425 54.2397 131.425 54.3969 131.74 54.7113C132.055 54.8686 132.684 55.183 133.629 55.3402C134.573 55.4974 135.36 55.8119 135.832 55.9691C136.462 56.2835 136.777 56.5979 137.091 56.9124C137.406 57.384 137.564 57.8557 137.564 58.3273C137.564 58.799 137.564 59.2706 137.091 59.7423C136.619 60.2139 136.304 60.5284 135.832 60.8428C135.203 61.1572 134.573 61.1572 133.943 61.1572C133.314 61.1572 132.37 61.1572 131.74 60.8428C131.11 60.5284 130.638 60.2139 130.323 59.7423C130.009 59.2706 129.851 58.6418 129.851 58.0129V57.6985Z" fill="white"/>
    <path d="M146.535 57.384L147.794 57.6985C147.48 58.799 147.007 59.5851 146.378 60.2139C145.591 60.8428 144.804 61 143.702 61C142.6 61 141.813 60.8428 141.184 60.3711C140.554 59.8995 140.082 59.2706 139.61 58.4845C139.295 57.6985 139.138 56.7552 139.138 55.8119C139.138 54.8686 139.295 53.9253 139.767 53.1392C140.239 52.3531 140.712 51.7242 141.499 51.4098C142.285 50.9381 143.072 50.7809 143.859 50.7809C144.646 50.7809 145.748 51.0954 146.378 51.567C147.007 52.0387 147.48 52.8247 147.794 53.6108L146.535 53.9253C146.378 53.1392 145.906 52.6675 145.591 52.3531C145.119 52.0387 144.646 51.8814 144.017 51.8814C143.387 51.8814 142.6 52.0387 142.128 52.3531C141.656 52.6675 141.184 53.1392 141.026 53.768C140.869 54.3969 140.712 55.0258 140.712 55.6546C140.712 56.2835 140.712 57.2268 141.026 57.8557C141.341 58.4845 141.656 58.9562 142.128 59.2706C142.6 59.5851 143.23 59.7423 143.859 59.7423C144.489 59.7423 145.276 59.5851 145.748 59.1134C146.22 58.6418 146.535 58.0129 146.85 57.2268L146.535 57.384Z" fill="white"/>
    <path d="M149.526 60.8428V50.9381H150.785V55.0258H155.979V50.9381H157.238V60.8428H155.979V56.1263H150.785V60.8428H149.526Z" fill="white"/>
    <path d="M161.173 60.8428L158.497 50.9381H159.756L161.33 57.384C161.488 58.0129 161.645 58.799 161.803 59.4278C162.117 58.3273 162.275 57.6985 162.275 57.5412L164.163 50.9381H165.737L167.154 55.9691C167.469 57.2268 167.784 58.3273 167.941 59.4278C167.941 58.799 168.256 58.0129 168.413 57.2268L169.987 50.9381H171.246L168.571 60.8428H167.311L165.265 53.2964C165.108 52.6675 164.95 52.3531 164.95 52.1959C164.95 52.6675 164.793 52.982 164.636 53.2964L162.589 60.8428H161.33H161.173Z" fill="white"/>
    <path d="M172.348 60.8428V50.9381H179.431V52.0387H173.607V55.0258H179.116V56.1263H173.607V59.4278H179.588V60.5284H172.191L172.348 60.8428Z" fill="white"/>
    <path d="M181.792 60.8428V50.9381H183.051V60.8428H181.792Z" fill="white"/>
    <path d="M184.625 60.8428V59.5851L189.662 53.2964C189.976 52.8247 190.291 52.5103 190.606 52.1959H185.097V51.0954H192.18V52.1959L186.671 58.9562L186.041 59.5851H192.337V60.6856H184.625V60.8428Z" fill="white"/>
    <path d="M197.216 55.9691C197.216 54.3969 197.689 52.982 198.476 52.1959C199.263 51.4098 200.522 50.7809 201.938 50.7809C203.355 50.7809 203.67 50.9381 204.457 51.4098C205.244 51.8814 205.716 52.5103 206.188 53.2964C206.503 54.0825 206.818 55.0258 206.818 55.9691C206.818 56.9124 206.66 57.8557 206.188 58.6418C205.716 59.4278 205.244 60.0567 204.457 60.3711C203.67 60.8428 202.883 61 202.096 61C201.309 61 200.364 60.8428 199.577 60.3711C198.79 59.8995 198.318 59.2706 197.846 58.4845C197.531 57.6985 197.216 56.9124 197.216 55.9691ZM198.633 55.9691C198.633 57.2268 198.948 58.0129 199.577 58.799C200.207 59.4278 200.994 59.8995 201.938 59.8995C202.883 59.8995 203.67 59.5851 204.299 58.799C204.929 58.1701 205.244 57.0696 205.244 55.8119C205.244 54.5541 205.244 54.2397 204.771 53.768C204.299 53.2964 204.142 52.6675 203.512 52.3531C203.04 52.0387 202.411 51.8814 201.781 51.8814C200.837 51.8814 200.05 52.1959 199.42 52.8247C198.79 53.4536 198.476 54.5541 198.476 55.9691H198.633Z" fill="white"/>
    <path d="M208.392 60.8428V50.9381H209.651V55.0258H214.845V50.9381H216.104V60.8428H214.845V56.1263H209.651V60.8428H208.392Z" fill="white"/>
    <path d="M218.307 60.8428V50.9381H219.567L224.761 58.6418V50.9381H226.02V60.8428H224.761L219.567 53.1392V60.8428H218.307Z" fill="white"/>
    <path d="M228.223 60.8428V50.9381H235.306V52.0387H229.483V55.0258H234.991V56.1263H229.483V59.4278H235.464V60.5284H228.066L228.223 60.8428Z" fill="white"/>
    <path d="M243.491 60.8428V52.1959H240.185V51.0954H248.055V52.1959H244.75V60.8428H243.491Z" fill="white"/>
    <path d="M249.472 60.8428V50.9381H253.879C254.823 50.9381 255.453 50.9381 255.925 51.2526C256.397 51.4098 256.712 51.7242 257.027 52.1959C257.342 52.6675 257.499 53.1392 257.499 53.6108C257.499 54.0825 257.342 54.8686 256.869 55.3402C256.397 55.8119 255.768 56.1263 254.823 56.2835C255.138 56.4407 255.453 56.5979 255.61 56.7552C255.925 57.0696 256.397 57.5412 256.712 58.0129L258.443 60.6856H256.869L255.61 58.6418C255.295 58.0129 254.981 57.5412 254.666 57.2268C254.351 56.9124 254.194 56.7552 254.036 56.5979C253.879 56.5979 253.721 56.4407 253.407 56.2835C253.407 56.2835 253.092 56.2835 252.62 56.2835H251.046V60.6856H249.787L249.472 60.8428ZM250.731 55.3402H253.564C254.194 55.3402 254.666 55.3402 254.981 55.183C255.295 55.183 255.61 54.8686 255.768 54.5541C255.925 54.2397 256.082 53.9253 256.082 53.6108C256.082 53.1392 255.925 52.8247 255.61 52.5103C255.295 52.1959 254.666 52.0387 254.036 52.0387H250.888V55.3402H250.731Z" fill="white"/>
    <path d="M258.286 60.8428L262.063 50.9381H263.48L267.572 60.8428H266.156L265.054 57.8557H260.962L259.86 60.8428H258.443H258.286ZM261.119 56.7552H264.424L263.323 54.0825C263.008 53.2964 262.85 52.5103 262.693 52.0387C262.693 52.6675 262.378 53.2964 262.221 53.9253L261.119 56.7552Z" fill="white"/>
    <path d="M275.599 57.384L276.859 57.6985C276.544 58.799 276.072 59.5851 275.442 60.2139C274.655 60.8428 273.868 61 272.766 61C271.664 61 270.878 60.8428 270.248 60.3711C269.618 59.8995 269.146 59.2706 268.674 58.4845C268.359 57.6985 268.202 56.7552 268.202 55.8119C268.202 54.8686 268.359 53.9253 268.831 53.1392C269.146 52.3531 269.776 51.7242 270.563 51.4098C271.35 50.9381 272.137 50.7809 272.924 50.7809C273.711 50.7809 274.812 51.0954 275.442 51.567C276.072 52.0387 276.544 52.8247 276.859 53.6108L275.599 53.9253C275.442 53.1392 274.97 52.6675 274.655 52.3531C274.183 52.0387 273.711 51.8814 273.081 51.8814C272.451 51.8814 271.664 52.0387 271.192 52.3531C270.72 52.6675 270.405 53.1392 270.091 53.768C269.933 54.3969 269.776 55.0258 269.776 55.6546C269.776 56.2835 269.776 57.2268 270.091 57.8557C270.405 58.4845 270.72 58.9562 271.192 59.2706C271.664 59.5851 272.294 59.7423 272.924 59.7423C273.553 59.7423 274.34 59.5851 274.812 59.1134C275.285 58.6418 275.599 58.0129 275.914 57.2268L275.599 57.384Z" fill="white"/>
    <path d="M278.432 60.8428V50.9381H279.692V55.0258H284.886V50.9381H286.145V60.8428H284.886V56.1263H279.692V60.8428H278.432Z" fill="white"/>
    <path d="M290.867 60.8428V52.1959H287.561V51.0954H295.431V52.1959H292.126V60.8428H290.867Z" fill="white"/>
    <path d="M296.848 60.8428V50.9381H303.931V52.0387H298.107V55.0258H303.616V56.1263H298.107V59.4278H304.088V60.5284H296.69L296.848 60.8428Z" fill="white"/>
    <path d="M305.977 60.8428V50.9381H307.236L312.43 58.6418V50.9381H313.689V60.8428H312.43L307.236 53.1392V60.8428H305.977Z" fill="white"/>
    <path d="M318.726 60.8428L314.948 50.9381H316.365L318.883 58.0129C319.041 58.6418 319.198 59.1134 319.355 59.5851C319.355 59.1134 319.67 58.4845 319.827 58.0129L322.503 50.9381H323.762L319.827 60.8428H318.568H318.726Z" fill="white"/>
    <path d="M325.179 60.8428V50.9381H332.262V52.0387H326.438V55.0258H331.947V56.1263H326.438V59.4278H332.419V60.5284H325.022L325.179 60.8428Z" fill="white"/>
    <path d="M334.308 60.8428V50.9381H338.715C339.659 50.9381 340.289 50.9381 340.761 51.2526C341.233 51.4098 341.548 51.7242 341.863 52.1959C342.178 52.6675 342.335 53.1392 342.335 53.6108C342.335 54.0825 342.178 54.8686 341.705 55.3402C341.233 55.8119 340.604 56.1263 339.659 56.2835C339.974 56.4407 340.289 56.5979 340.446 56.7552C340.761 57.0696 341.233 57.5412 341.548 58.0129L343.279 60.6856H341.705L340.446 58.6418C340.132 58.0129 339.817 57.5412 339.502 57.2268C339.187 56.9124 339.03 56.7552 338.872 56.5979C338.715 56.5979 338.558 56.4407 338.243 56.2835C338.243 56.2835 337.928 56.2835 337.456 56.2835H335.882V60.6856H334.623L334.308 60.8428ZM335.567 55.3402H338.4C339.03 55.3402 339.502 55.3402 339.817 55.183C340.131 55.183 340.446 54.8686 340.604 54.5541C340.761 54.2397 340.918 53.9253 340.918 53.6108C340.918 53.1392 340.761 52.8247 340.446 52.5103C340.132 52.1959 339.502 52.0387 338.872 52.0387H335.724V55.3402H335.567Z" fill="white"/>
    <path d="M344.224 60.8428V50.9381H351.307V52.0387H345.483V55.0258H350.992V56.1263H345.483V59.4278H351.464V60.5284H344.066L344.224 60.8428Z" fill="white"/>
    <path d="M353.667 60.8428V50.9381H354.927V60.8428H353.667Z" fill="white"/>
    <path d="M357.13 60.8428V50.9381H358.389L363.583 58.6418V50.9381H364.843V60.8428H363.583L358.389 53.1392V60.8428H357.13Z" fill="white"/>
</svg>
