<?xml version="1.0" standalone="no"?>
<!DOCTYPE svg PUBLIC "-//W3C//DTD SVG 20010904//EN"
 "http://www.w3.org/TR/2001/REC-SVG-20010904/DTD/svg10.dtd">
<svg version="1.0" xmlns="http://www.w3.org/2000/svg"
 width="1080.000000pt" height="1080.000000pt" viewBox="0 0 1080.000000 1080.000000"
 preserveAspectRatio="xMidYMid meet">
<metadata>
Created by potrace 1.14, written by Peter Selinger 2001-2017
</metadata>
<g transform="translate(0.000000,1080.000000) scale(0.100000,-0.100000)"
fill="#000000" stroke="none">
<path d="M1676 8959 c-380 -32 -660 -155 -826 -362 -63 -79 -142 -237 -174
-349 -54 -189 -59 -249 -63 -853 -5 -590 1 -730 38 -924 99 -514 430 -772
1053 -821 166 -13 2118 -13 2286 0 666 52 979 318 1076 915 12 73 17 199 21
473 l5 372 -1386 0 -1386 0 0 -285 0 -285 1040 0 1040 0 0 -102 c-1 -306 -120
-454 -409 -503 -76 -14 -237 -15 -1182 -13 -1089 3 -1094 3 -1171 25 -42 12
-95 31 -119 43 -60 31 -137 106 -165 162 -53 104 -54 119 -54 853 0 734 1 749
54 853 50 98 151 170 296 209 60 17 146 18 1195 18 1075 0 1133 -1 1200 -19
128 -34 229 -97 275 -172 l22 -34 349 0 c326 0 349 1 349 18 0 34 -76 238
-112 302 -146 257 -390 404 -778 467 -94 15 -228 17 -1240 19 -624 1 -1180 -2
-1234 -7z"/>
<path d="M6736 8959 c-463 -38 -799 -229 -936 -533 -95 -210 -106 -569 -25
-813 97 -291 331 -456 754 -532 296 -54 493 -62 1586 -71 1074 -8 1095 -9
1216 -61 61 -27 114 -84 130 -141 6 -24 12 -97 13 -163 1 -144 -16 -211 -70
-273 -48 -57 -113 -88 -248 -120 l-111 -27 -1105 0 c-1025 0 -1112 1 -1195 18
-148 30 -266 96 -295 167 l-12 30 -355 0 -355 0 7 -52 c12 -88 49 -199 89
-273 106 -190 352 -352 638 -419 212 -51 224 -51 1448 -51 1224 0 1206 -1
1460 52 487 100 740 319 800 695 18 110 8 514 -14 593 -35 122 -84 204 -181
301 -75 75 -106 98 -190 141 -216 109 -446 160 -825 183 -91 5 -574 10 -1075
10 -1077 0 -1194 7 -1353 80 -122 57 -146 109 -141 307 4 119 6 132 34 188 50
101 140 149 331 177 128 19 1996 19 2169 0 275 -30 392 -79 435 -182 l12 -30
359 0 c246 0 359 3 359 11 0 47 -56 242 -87 302 -50 98 -216 264 -324 325
-157 88 -356 142 -604 162 -152 12 -2189 11 -2339 -1z"/>
<path d="M5717 5153 c-4 -3 -7 -156 -7 -340 l0 -333 950 0 950 0 0 -1325 0
-1325 340 0 340 0 0 1325 0 1325 950 0 950 0 0 340 0 340 -2233 0 c-1229 0
-2237 -3 -2240 -7z"/>
<path d="M1595 4504 c-199 -25 -340 -65 -475 -135 -270 -139 -426 -370 -487
-717 -14 -79 -17 -166 -17 -472 -1 -396 4 -453 49 -627 96 -366 358 -598 771
-683 180 -37 360 -42 1464 -38 942 4 1066 6 1158 22 438 73 707 279 828 634
57 168 65 233 71 600 6 372 -4 527 -42 679 -100 393 -350 619 -791 715 -98 22
-108 22 -1299 24 -660 1 -1213 0 -1230 -2z m2440 -556 c118 -27 181 -56 240
-109 63 -58 99 -125 120 -224 22 -105 21 -775 -1 -882 -39 -189 -135 -279
-349 -329 -76 -18 -144 -19 -1265 -19 l-1185 0 -88 22 c-108 28 -156 52 -218
110 -52 49 -88 115 -110 203 -20 79 -20 831 0 910 50 200 175 294 437 329 38
5 574 8 1209 7 1002 -2 1148 -4 1210 -18z"/>
</g>
</svg>
